HIERARCHY
ROOT RootJoint
{
    OFFSET   0.000000   0.000000   0.000000
    CHANNELS 6 Xposition Yposition Zposition Xrotation Yrotation Zrotation
    JOINT lHip
    {
        OFFSET   0.100000  -0.051395   0.000000
        CHANNELS 3 Xrotation Yrotation Zrotation
        JOINT lKnee
        {
            OFFSET   0.000000  -0.410000   0.000000
            CHANNELS 3 Xrotation Yrotation Zrotation
            JOINT lAnkle
            {
                OFFSET   0.000000  -0.390000   0.000000
                CHANNELS 3 Xrotation Yrotation Zrotation
                JOINT lToeJoint
                {
                    OFFSET   0.000000  -0.050000   0.130000
                    CHANNELS 3 Xrotation Yrotation Zrotation
                    End Site
                    {
                        OFFSET   0.010000   0.002000   0.060000
                    }
                }
            }
        }
    }
    JOINT rHip
    {
        OFFSET  -0.100000  -0.051395   0.000000
        CHANNELS 3 Xrotation Yrotation Zrotation
        JOINT rKnee
        {
            OFFSET   0.000000  -0.410000   0.000000
            CHANNELS 3 Xrotation Yrotation Zrotation
            JOINT rAnkle
            {
                OFFSET   0.000000  -0.390000   0.000000
                CHANNELS 3 Xrotation Yrotation Zrotation
                JOINT rToeJoint
                {
                    OFFSET   0.000000  -0.050000   0.130000
                    CHANNELS 3 Xrotation Yrotation Zrotation
                    End Site
                    {
                        OFFSET  -0.010000   0.002000   0.060000
                    }
                }
            }
        }
    }
    JOINT pelvis_lowerback
    {
        OFFSET   0.000000   0.093605   0.000000
        CHANNELS 3 Xrotation Yrotation Zrotation
        JOINT lowerback_torso
        {
            OFFSET   0.000000   0.100000   0.000000
            CHANNELS 3 Xrotation Yrotation Zrotation
            JOINT torso_head
            {
                OFFSET   0.000000   0.282350   0.000000
                CHANNELS 3 Xrotation Yrotation Zrotation
                End Site
                {
                    OFFSET   0.000000   0.192650   0.000000
                }
            }
            JOINT lTorso_Clavicle
            {
                OFFSET   0.001000   0.157500   0.000000
                CHANNELS 3 Xrotation Yrotation Zrotation
                JOINT lShoulder
                {
                    OFFSET   0.117647   0.000000   0.000000
                    CHANNELS 3 Xrotation Yrotation Zrotation
                    JOINT lElbow
                    {
                        OFFSET   0.245000   0.000000   0.000000
                        CHANNELS 3 Xrotation Yrotation Zrotation
                        JOINT lWrist
                        {
                            OFFSET   0.240000   0.000000   0.000000
                            CHANNELS 3 Xrotation Yrotation Zrotation
                            End Site
                            {
                                OFFSET   0.116353  -0.002500   0.000000
                            }
                        }
                    }
                }
            }
            JOINT rTorso_Clavicle
            {
                OFFSET  -0.001000   0.157500   0.000000
                CHANNELS 3 Xrotation Yrotation Zrotation
                JOINT rShoulder
                {
                    OFFSET  -0.117647   0.000000   0.000000
                    CHANNELS 3 Xrotation Yrotation Zrotation
                    JOINT rElbow
                    {
                        OFFSET  -0.245000   0.000000   0.000000
                        CHANNELS 3 Xrotation Yrotation Zrotation
                        JOINT rWrist
                        {
                            OFFSET  -0.240000   0.000000   0.000000
                            CHANNELS 3 Xrotation Yrotation Zrotation
                            End Site
                            {
                                OFFSET  -0.116353  -0.002500   0.000000
                            }
                        }
                    }
                }
            }
        }
    }
}
MOTION
Frames: 10
Frame Time:   0.010000
  0.566270   0.578493   0.549153  45.396049  26.356807  41.588855 -54.407047  64.040564  85.860086  76.355784  60.297723  23.045893  23.517659  56.945472  35.555026  38.664387  58.801599  27.148838   1.233204  12.553461  52.397120  95.137347  41.765982 -14.244678  26.435363  57.901003  52.159507  36.315550  57.144710  31.130261  45.629340  55.719555  25.267663  65.427225  54.777201  19.349554  89.120085  59.711233 -11.138187  60.002155  37.049222 -15.625645  89.346718   5.464295   0.028232  28.283680  24.207492  67.620902  63.895354  60.312071   4.441835   0.476688  54.908650  86.898244  40.416017  87.720121  51.031176 105.020423  85.889186 -66.842305  77.391499  62.170290  -6.209259
  0.554325   0.584015   0.577566  48.704135  28.390326  38.373466 -55.714879  64.969991  86.173830  78.242100  59.365288  20.197310  30.311264  57.190094  31.681500  41.890351  56.043371  25.838408   2.445724  13.708948  55.133548  95.481245  44.863366 -14.390449  18.865731  55.525396  56.247336  35.717970  56.955104  29.904295  42.749804  58.694511  27.149824  64.780115  57.474608  19.230085  91.674679  62.581892 -13.489299  56.185511  37.667797 -14.363915  89.621833   5.451076   0.015317  31.788841  24.879941  63.146776  77.054784  56.844351  -9.147510  -0.115893  54.013069  87.591793  40.678162  87.857217  50.691729 106.172295  84.625711 -69.304382  80.790570  63.155451  -6.890811
  0.579163   0.573896   0.548891  42.852217  27.128514  44.941466 -53.455423  66.618552  81.795500  76.768712  60.473857  22.340596  29.146522  58.517993  32.809944  37.019334  56.771003  30.361019   2.810182  13.468514  55.148747  98.514749  44.877154 -21.383608  24.365507  54.354753  56.082052  34.163246  58.412226  31.989847  45.044233  55.903155  26.042211  63.759008  57.745110  21.254890  84.884440  56.012654  -3.654373  57.734937  36.352506 -14.523570  89.482875   5.461209   0.018367  31.179653  25.804560  66.703982  73.056704  58.138103  -2.878655   0.479745  54.750312  87.533308  41.821956  87.686513  49.692222 106.007323  84.867748 -68.914870  83.178653  64.603756 -11.356120
  0.544098   0.599419   0.550900  44.268403  27.034079  43.593325 -53.351793  64.586568  84.035255  76.263695  59.544058  23.540309  15.766704  57.647980  39.821796  39.395910  55.434171  27.068926   1.544463  13.405301  58.215163  93.790548  43.102508 -11.566278  25.322236  56.512508  53.758305  31.694119  56.294645  34.356417  46.164970  56.916953  25.652136  58.837666  57.660371  26.560374  90.679634  58.868313 -11.167152  58.530722  37.432344 -15.136278  89.509011   5.461338   0.015869  30.433160  24.297228  63.879585  77.948408  59.082502 -10.469676   1.753083  55.042705  86.356156  40.320185  87.484134  51.272010 106.066370  84.246759 -69.236507  82.027657  62.871471 -10.121058
  0.545641   0.578314   0.587478  43.695247  25.686933  44.305796 -53.700315  64.046543  84.843835  77.088081  58.242975  22.721444  25.060047  54.210490  33.292075  39.990919  56.644195  28.089179   2.396978  14.087950  52.694840  95.142485  41.774197 -14.589869  17.781737  54.904175  54.962504  34.127010  56.547133  31.548582  48.317596  58.739389  25.360302  65.488869  55.045955  18.159287  82.304091  53.943669   3.092958  59.161461  39.052081 -16.466705  89.491061   5.458009   0.020775  30.511763  25.053170  65.850447  77.249584  55.957168  -9.322806  -0.236354  53.621893  87.677691  40.760955  87.825810  50.630030 106.438694  84.335037 -68.701520  77.391320  63.530896  -3.935656
  0.539108   0.563984   0.545410  43.983131  30.763763  42.443354 -48.772635  65.010947  78.033177  74.717020  60.102982  25.758581  17.861713  54.201868  41.590737  38.964672  57.741114  29.091432   1.636701  12.868432  53.726702  95.941360  43.569132 -15.718166  19.244265  56.385168  59.410922  31.419473  57.952223  32.407897  43.234127  57.679996  26.071822  64.874417  58.521911  17.985697  92.882348  58.651838 -18.510365  58.049698  38.783527 -15.757069  89.462843   5.462715   0.018807  32.051540  24.987456  62.995342  78.587656  58.369383 -10.971025   1.592928  54.693103  86.350359  39.507581  87.429340  52.090335 107.061397  84.587031 -67.868488  82.280569  61.197297 -11.509864
  0.553935   0.579798   0.557184  40.569948  26.312026  46.177584 -55.568764  65.954515  85.119957  78.442247  62.405541  18.729628  20.365628  59.353084  40.027314  40.168213  56.507620  27.511000   5.444868  12.727800  54.472534  95.289463  41.951449 -15.377281  19.282744  58.187454  58.008296  35.945872  57.587117  30.387734  45.360182  56.257249  28.343559  63.785616  58.063834  20.106706  87.330497  60.640884  -6.500017  65.283739  38.700642 -18.935172  89.481344   5.458719   0.020995  32.778511  26.002741  64.479422  80.801203  57.672008 -11.717949   0.652964  51.809135  87.401893  41.566369  87.237088  50.226794 104.569593  84.645876 -69.803457  76.361754  63.364866  -2.480943
  0.579326   0.587647   0.541650  42.950202  25.524887  44.377536 -54.501992  65.480564  84.049061  75.733050  58.924806  24.823570  27.663296  56.253750  35.570629  38.379008  57.083709  29.436998   2.334885  13.639955  55.536851  95.614369  43.366379 -15.179919  24.349979  55.553663  54.698130  33.568147  57.612817  32.444762  39.838172  55.955621  30.560584  60.456278  59.384134  23.353842  92.848006  59.981787 -15.801535  57.128306  37.457814 -14.645786  89.423361   5.460436   0.024737  29.565557  24.477037  65.961393  79.318616  55.389953  -8.902503   1.238635  55.130319  86.877958  41.071915  87.459571  50.562943 105.202511  85.387146 -67.682880  78.783076  63.350267  -5.755901
  0.543524   0.581967   0.575067  42.711022  26.429875  44.031507 -55.966646  64.111533  87.388793  74.788113  59.805327  25.910133  21.111424  57.452293  39.419938  41.312546  56.425320  25.598582   0.495981  14.537887  58.622919  94.540368  41.199781 -13.400275  30.882762  55.205832  47.828949  33.488094  57.688294  32.552326  41.052329  55.516432  30.891871  62.256373  53.323508  24.438728  83.609011  52.115531   2.108852  58.046778  36.717348 -14.463269  89.464200   5.459659   0.021741  31.852197  25.871996  65.706376  78.486491  57.640905 -10.196410   1.144245  52.592999  87.212814  41.751703  87.409483  49.938933 106.109433  83.691655 -69.129354  81.583311  65.091827  -9.832608
  0.553718   0.610216   0.590039  42.546410  25.355336  43.080418 -49.457403  62.799687  81.607805  77.665183  57.882594  21.841043  17.810631  52.442987  45.393655  40.848730  55.583839  29.485889   2.075672  13.656188  53.031356  96.749062  42.044987 -18.732130  21.523696  53.699472  57.590777  31.836051  55.495396  32.377010  38.609100  58.421827  31.265455  60.477979  58.190491  23.722575  91.142742  57.368892 -14.629127  56.032438  39.906657 -15.403290  89.406037   5.462008   0.024852  30.076481  24.871471  66.133860  74.242913  57.889083  -4.587791   0.735600  53.330273  87.125409  41.266010  87.414586  50.403076 106.336828  82.697837 -69.242023  77.769450  62.554015  -3.030890
